<?xml version="1.0" encoding="UTF-8"?>
<svg version="1.1" xmlns="http://www.w3.org/2000/svg" width="236" height="213">
<path d="M0 0 C77.88 0 155.76 0 236 0 C236 70.29 236 140.58 236 213 C158.12 213 80.24 213 0 213 C0 142.71 0 72.42 0 0 Z " fill="#020303" transform="translate(0,0)"/>
<path d="M0 0 C0.58845703 0.25813477 1.17691406 0.51626953 1.78320312 0.78222656 C21.84447706 9.70603462 34.26827227 22.75427562 43.66015625 42.48828125 C47.43572587 52.38401619 47.31763753 63.5356082 47 74 C45.86820313 74.48210937 44.73640625 74.96421875 43.5703125 75.4609375 C42.08843392 76.09870803 40.60666895 76.73674261 39.125 77.375 C38.37863281 77.69210938 37.63226563 78.00921875 36.86328125 78.3359375 C36.14785156 78.6453125 35.43242187 78.9546875 34.6953125 79.2734375 C34.03547363 79.55622559 33.37563477 79.83901367 32.69580078 80.13037109 C30.80513301 80.99050903 30.80513301 80.99050903 29 83 C27.01975652 83.68502609 25.01493904 84.29998202 23 84.875 C18.0530442 86.29011476 13.35245569 88.02759733 8.59277344 89.9609375 C-5.6681302 95.67604163 -19.72013324 99.40510556 -35 101 C-35.86077148 101.0935376 -36.72154297 101.1870752 -37.60839844 101.28344727 C-44.41406724 101.96998403 -51.16217788 102.18310551 -58 102.1875 C-59.00289062 102.19974609 -60.00578125 102.21199219 -61.0390625 102.22460938 C-76.52530909 102.25462148 -89.47725668 98.20231896 -102 89 C-101.38722388 86.03824877 -100.74627478 84.61941217 -99 82 C-96.0280615 83.12451727 -93.66559313 84.22293791 -91 86 C-91.32597168 85.13938965 -91.65194336 84.2787793 -91.98779297 83.39208984 C-93.01348252 79.95481762 -93.2306704 77.2977106 -93.1953125 73.7265625 C-93.18886719 72.57285156 -93.18242188 71.41914062 -93.17578125 70.23046875 C-93.15902344 69.04066406 -93.14226562 67.85085937 -93.125 66.625 C-93.11597656 65.41199219 -93.10695313 64.19898437 -93.09765625 62.94921875 C-93.07416588 59.96594227 -93.04131682 56.98307406 -93 54 C-92.34 54 -91.68 54 -91 54 C-91.0721875 52.84113281 -91.144375 51.68226562 -91.21875 50.48828125 C-91.2103255 45.70000369 -89.7362277 42.35069533 -87.5 38.1875 C-87.1383374 37.49462891 -86.7766748 36.80175781 -86.40405273 36.08789062 C-76.41322551 17.40082224 -61.17677256 4.72559085 -41 -2 C-28.19560447 -3.80061812 -12.05162041 -5.44148922 0 0 Z " fill="#FCFBFB" transform="translate(132,8)"/>
<path d="M0 0 C-0.88701302 6.32281073 -4.45397144 10.83374195 -8 16 C-8.55042969 16.80308594 -9.10085937 17.60617188 -9.66796875 18.43359375 C-17.61504778 29.32543366 -29.67130525 38.65611252 -43.1640625 40.7734375 C-43.76992187 40.84820312 -44.37578125 40.92296875 -45 41 C-45 41.66 -45 42.32 -45 43 C-52.34140986 44.28474673 -59.61177396 45.22876396 -67.0625 45.375 C-68.27035156 45.40335938 -69.47820312 45.43171875 -70.72265625 45.4609375 C-74.43775314 45.27312633 -77.60861918 44.19663641 -81.12109375 43.00390625 C-89.2769846 40.35716424 -97.04290224 40.5105216 -105.5390625 40.59960938 C-115.27233763 40.50788782 -123.81395154 38.45736564 -132 33 C-131.38722388 30.03824877 -130.74627478 28.61941217 -129 26 C-124.57297101 26.91881734 -120.72197676 28.92258241 -116.65625 30.84375 C-95.85971559 39.8963591 -68.11002768 30.7166658 -48.27587891 22.94335938 C-46.65226097 22.2932634 -45.03088731 21.63753285 -43.41186523 20.97607422 C-41.80135013 20.32430386 -40.18345059 19.69049683 -38.55883789 19.07470703 C-31.99959418 16.56601811 -25.94091929 13.41736562 -19.8125 10 C-18.86697266 9.47921875 -17.92144531 8.9584375 -16.94726562 8.421875 C-12.92088602 6.19965016 -8.91438137 3.95467403 -4.94921875 1.625 C-2 0 -2 0 0 0 Z " fill="#F3F4F3" transform="translate(174,100)"/>
<path d="M0 0 C2.31 0 4.62 0 7 0 C7 3.3 7 6.6 7 10 C7.99 9.34 8.98 8.68 10 8 C13.96869102 7.4708412 15.71621958 7.84173784 19.25 9.8125 C22.33748507 12.26845403 23.84944307 13.77103527 24.3359375 17.7421875 C24.44187221 26.23815136 24.44187221 26.23815136 22.1875 30.125 C17.90488085 33.79581642 15.59646096 34.29981041 10 34 C9.01 33.67 8.02 33.34 7 33 C6.505 33.495 6.505 33.495 6 34 C4.02 34 2.04 34 0 34 C0 22.78 0 11.56 0 0 Z " fill="#E2E4E5" transform="translate(187,157)"/>
<path d="M0 0 C2.31 0 4.62 0 7 0 C7 3.96 7 7.92 7 12 C10.96 12 14.92 12 19 12 C19 8.04 19 4.08 19 0 C21.64 0 24.28 0 27 0 C27 11.22 27 22.44 27 34 C24.69 34 22.38 34 20 34 C20 28.72 20 23.44 20 18 C15.38 18 10.76 18 6 18 C6 22.95 6 27.9 6 33 C4.02 33 2.04 33 0 33 C0.875 28.25 0.875 28.25 2 26 C-0.31 26 -2.62 26 -5 26 C-5 26.66 -5 27.32 -5 28 C-11.46895075 29.34261242 -11.46895075 29.34261242 -13.9375 27.75 C-15 26 -15 26 -15 23 C-9.39 23 -3.78 23 2 23 C1.67 21.618125 1.34 20.23625 1 18.8125 C-0.27851236 12.53698511 -0.17993288 6.37762097 0 0 Z " fill="#E4E6E6" transform="translate(126,157)"/>
<path d="M0 0 C2.31 0 4.62 0 7 0 C7.02685095 2.47923801 7.04676547 4.9581884 7.0625 7.4375 C7.07087891 8.14455078 7.07925781 8.85160156 7.08789062 9.58007812 C7.09653588 11.38693559 7.05220011 13.19387603 7 15 C6.67 15.33 6.34 15.66 6 16 C5.92674832 18.86267567 5.90761795 21.700719 5.9375 24.5625 C5.94201172 25.36880859 5.94652344 26.17511719 5.95117188 27.00585938 C5.96299482 29.00393756 5.98093086 31.00197783 6 33 C3.33333333 33 0.66666667 33 -2 33 C-2.99 33.495 -2.99 33.495 -4 34 C-7.3125 34.375 -7.3125 34.375 -11 34 C-14.47416052 31.13004131 -16.76493254 28.96087916 -17.30859375 24.42578125 C-17.69988586 14.97548382 -17.69988586 14.97548382 -14.4375 10.75 C-11.87515242 8.25444347 -11.0350078 8.00534017 -7.3125 7.4375 C-4 8 -4 8 -1 10 C-0.67 6.7 -0.34 3.4 0 0 Z " fill="#E8E9EA" transform="translate(99,157)"/>
<path d="M0 0 C0.82242188 -0.0309375 1.64484375 -0.061875 2.4921875 -0.09375 C6.29308319 0.76342529 8.9486175 2.29161125 11.125 5.5 C11.84626525 8.96993074 11.69429505 12.28778857 11.5 15.8125 C11.47292969 16.74384766 11.44585937 17.67519531 11.41796875 18.63476562 C11.3474825 20.92556872 11.24904246 23.21157563 11.125 25.5 C9.145 25.5 7.165 25.5 5.125 25.5 C5.125 24.84 5.125 24.18 5.125 23.5 C4.465 23.995 3.805 24.49 3.125 25 C-0.94900419 27.0370021 -3.34223344 26.93865483 -7.875 26.5 C-9.875 25.5 -9.875 25.5 -10.875 23.5 C-11.62076271 16.78813559 -11.62076271 16.78813559 -9.5 13.125 C-5.56795907 10.69087942 -1.40656 10.15724916 3.125 9.5 C3.455 8.51 3.785 7.52 4.125 6.5 C1.815 6.5 -0.495 6.5 -2.875 6.5 C-3.205 7.16 -3.535 7.82 -3.875 8.5 C-5.855 8.5 -7.835 8.5 -9.875 8.5 C-9.55362916 5.52731977 -9.35175271 3.947891 -7.1328125 1.86328125 C-4.54322186 0.29967029 -3.00613931 0.03745968 0 0 Z " fill="#E4E6E7" transform="translate(66.875,164.5)"/>
<path d="M0 0 C8.91 0 17.82 0 27 0 C27 1.98 27 3.96 27 6 C24.03 6 21.06 6 18 6 C18 14.91 18 23.82 18 33 C15.36 33 12.72 33 10 33 C10 24.09 10 15.18 10 6 C6.7 6 3.4 6 0 6 C0 4.02 0 2.04 0 0 Z " fill="#DEE0E1" transform="translate(11,157)"/>
<path d="M0 0 C1.98 0 3.96 0 6 0 C6.33 5.94 6.66 11.88 7 18 C8.98 18.66 10.96 19.32 13 20 C13.98142381 15.75266168 14.30920379 11.52675467 14.5625 7.1875 C14.60568359 6.49462891 14.64886719 5.80175781 14.69335938 5.08789062 C14.79861453 3.39211314 14.89972863 1.69607948 15 0 C17.31 0 19.62 0 22 0 C22 8.25 22 16.5 22 25 C20.02 25 18.04 25 16 25 C16 24.01 16 23.02 16 22 C15.319375 22.495 14.63875 22.99 13.9375 23.5 C10.32791631 25.34319167 8.00550187 25.44505576 4 25 C1.68511664 23.53390721 1.15399968 22.56077123 0.43359375 19.9375 C-0.14698064 16.00423929 -0.10575146 12.15665281 -0.0625 8.1875 C-0.05573242 7.00510742 -0.05573242 7.00510742 -0.04882812 5.79882812 C-0.03711312 3.86585239 -0.01917998 1.93291607 0 0 Z " fill="#E8E9E9" transform="translate(159,166)"/>
<path d="M0 0 C0 2.31 0 4.62 0 7 C-2.31 7.66 -4.62 8.32 -7 9 C-7.33 14.61 -7.66 20.22 -8 26 C-10.31 26 -12.62 26 -15 26 C-15 17.75 -15 9.5 -15 1 C-13.02 1 -11.04 1 -9 1 C-9 1.99 -9 2.98 -9 4 C-8.34 4 -7.68 4 -7 4 C-6.67 3.01 -6.34 2.02 -6 1 C-4 0 -4 0 0 0 Z " fill="#DDDFDF" transform="translate(54,165)"/>
<path d="M0 0 C4.73173324 1.8657989 9.35823246 3.92159662 14 6 C14.33 10.95 14.66 15.9 15 21 C11.90915624 20.22728906 8.86620086 19.40212729 5.8125 18.5 C4.93207031 18.2421875 4.05164063 17.984375 3.14453125 17.71875 C1 17 1 17 0 16 C-0.07319621 13.30345146 -0.09242537 10.63308542 -0.0625 7.9375 C-0.05798828 7.17888672 -0.05347656 6.42027344 -0.04882812 5.63867188 C-0.0370068 3.75908129 -0.01907078 1.87953101 0 0 Z " fill="#EEEEEE" transform="translate(215,51)"/>
<path d="M0 0 C1.7858987 13.47692075 1.7858987 13.47692075 -1.16162109 17.64111328 C-4.00491186 20.38840416 -8.9837074 25 -13 25 C-13.05428973 22.77110504 -13.09292338 20.54182529 -13.125 18.3125 C-13.15980469 16.45044922 -13.15980469 16.45044922 -13.1953125 14.55078125 C-13.00490434 11.08916091 -12.69684015 8.99809794 -11 6 C-8.90625 4.19921875 -8.90625 4.19921875 -6.5 2.6875 C-5.7059375 2.17574219 -4.911875 1.66398437 -4.09375 1.13671875 C-2 0 -2 0 0 0 Z " fill="#E9EAEA" transform="translate(213,51)"/>
<path d="M0 0 C1.2065625 0.495 1.2065625 0.495 2.4375 1 C5.27949909 2.10907282 7.98593192 2.57943236 11 3 C9.67745746 6.96762763 7.7123894 8.41895292 4.37890625 10.828125 C0.16685427 12.90302746 -3.5644269 12.01444495 -8 11 C-8.79664063 10.82339844 -9.59328125 10.64679688 -10.4140625 10.46484375 C-12.28647619 10.01824331 -14.14528809 9.51519775 -16 9 C-14.55875486 5.46239829 -12.8323248 3.81752419 -9.6875 1.6875 C-8.92824219 1.15511719 -8.16898438 0.62273437 -7.38671875 0.07421875 C-4.43142722 -1.25590428 -3.05084381 -0.94454932 0 0 Z " fill="#EEEFEF" transform="translate(218,70)"/>
<path d="M0 0 C2.60704898 2.60704898 2.23905333 4.47338241 2.265625 8.02734375 C2 10 2 10 0 13 C-2.9375 13.4375 -2.9375 13.4375 -6 13 C-8.81868001 10.65109999 -8.9884844 9.09376985 -9.4375 5.4375 C-9 2 -9 2 -7.3125 0 C-4.39120636 -1.26326211 -2.98201353 -1.02016252 0 0 Z " fill="#080809" transform="translate(97,172)"/>
<path d="M0 0 C2 2 2 2 2.265625 4.3125 C2.26046875 5.199375 2.2553125 6.08625 2.25 7 C2.25515625 7.886875 2.2603125 8.77375 2.265625 9.6875 C2 12 2 12 0 14 C-3 14.25 -3 14.25 -6 14 C-8.41486943 11.58513057 -8.2961925 10.87292211 -8.3125 7.5625 C-8.32925781 6.78003906 -8.34601563 5.99757812 -8.36328125 5.19140625 C-7.55994272 0.34546091 -4.51082452 -0.57831084 0 0 Z " fill="#060707" transform="translate(202,171)"/>
<path d="M0 0 C3.125 0.375 3.125 0.375 6 1 C6.625 4.375 6.625 4.375 7 8 C5 10 5 10 2 10.3125 C1.01 10.209375 0.02 10.10625 -1 10 C-3 7 -3 7 -2.75 4.4375 C-2 2 -2 2 0 0 Z " fill="#949CA0" transform="translate(150,196)"/>
<path d="M0 0 C2.375 0.6875 2.375 0.6875 3.375 1.6875 C3.5625 4.625 3.5625 4.625 3.375 7.6875 C1.375 9.6875 1.375 9.6875 -1.0625 10 C-3.625 9.6875 -3.625 9.6875 -5.5 8.5 C-6.625 6.6875 -6.625 6.6875 -6.5 4.125 C-5.233732 0.59753914 -3.73919545 -0.44514232 0 0 Z " fill="#939C9F" transform="translate(100.625,196.3125)"/>
<path d="M0 0 C0.33 0 0.66 0 1 0 C1.33 5.28 1.66 10.56 2 16 C3.5675 16.45375 5.135 16.9075 6.75 17.375 C10.02896392 18.32417377 12.99049877 19.38274466 16 21 C16.33 20.01 16.66 19.02 17 18 C16.67 20.31 16.34 22.62 16 25 C15.34 24.67 14.68 24.34 14 24 C14.33 23.34 14.66 22.68 15 22 C14.154375 22.061875 13.30875 22.12375 12.4375 22.1875 C9 22 9 22 5.375 20.4375 C2.2605255 18.7846299 2.2605255 18.7846299 -0.25 19.25 C-0.8275 19.4975 -1.405 19.745 -2 20 C-2.99 20.33 -3.98 20.66 -5 21 C-5 20.01 -5 19.02 -5 18 C-4.01 17.34 -3.02 16.68 -2 16 C-1.45498935 13.24288731 -1.07450235 10.65847454 -0.8125 7.875 C-0.73064453 7.12089844 -0.64878906 6.36679687 -0.56445312 5.58984375 C-0.3641103 3.72783393 -0.18045964 1.86404189 0 0 Z " fill="#464C4E" transform="translate(214,51)"/>
<path d="M0 0 C3.125 0.25 3.125 0.25 5 1.5625 C6.125 3.25 6.125 3.25 6.125 6.25 C2.495 6.25 -1.135 6.25 -4.875 6.25 C-3.68915929 0.32079646 -3.68915929 0.32079646 0 0 Z " fill="#C2C6C7" transform="translate(115.875,169.75)"/>
<path d="M0 0 C2.31 0.33 4.62 0.66 7 1 C6.67 2.32 6.34 3.64 6 5 C0.58264203 5.93402724 -2.80451575 6.20808081 -8 4 C-7.67 3.01 -7.34 2.02 -7 1 C-7 1.66 -7 2.32 -7 3 C-5.02 3 -3.04 3 -1 3 C-0.67 2.01 -0.34 1.02 0 0 Z " fill="#2E3233" transform="translate(64,170)"/>
<path d="M0 0 C3.39914975 1.13304992 4.05254451 2.12518475 6 5 C6.33 3.68 6.66 2.36 7 1 C7.66 1 8.32 1 9 1 C9 3.97 9 6.94 9 10 C5 8 5 8 3 5 C2.67 6.65 2.34 8.3 2 10 C1.34 10 0.68 10 0 10 C0 6.7 0 3.4 0 0 Z " fill="#939C9F" transform="translate(62,196)"/>
<path d="M0 0 C0.1875 2.375 0.1875 2.375 0 5 C-3.22791555 7.1519437 -4.28400809 7.20086443 -8 7 C-8.33 5.35 -8.66 3.7 -9 2 C-5.62902617 0.50178941 -3.79557881 0 0 0 Z " fill="#131515" transform="translate(71,179)"/>
<path d="M0 0 C0.763125 0.20625 1.52625 0.4125 2.3125 0.625 C2.3125 0.955 2.3125 1.285 2.3125 1.625 C0.6625 1.955 -0.9875 2.285 -2.6875 2.625 C-2.6875 3.945 -2.6875 5.265 -2.6875 6.625 C-1.3675 6.955 -0.0475 7.285 1.3125 7.625 C1.3125 6.965 1.3125 6.305 1.3125 5.625 C0.6525 5.625 -0.0075 5.625 -0.6875 5.625 C-0.6875 4.965 -0.6875 4.305 -0.6875 3.625 C0.6325 3.955 1.9525 4.285 3.3125 4.625 C2.9825 6.275 2.6525 7.925 2.3125 9.625 C-0.5625 9.75 -0.5625 9.75 -3.6875 9.625 C-5.6875 7.625 -5.6875 7.625 -6 4.625 C-5.896875 3.635 -5.79375 2.645 -5.6875 1.625 C-2.6875 -0.375 -2.6875 -0.375 0 0 Z " fill="#98A1A5" transform="translate(164.6875,196.375)"/>
<path d="M0 0 C1.4540625 0.0309375 1.4540625 0.0309375 2.9375 0.0625 C2.9375 0.7225 2.9375 1.3825 2.9375 2.0625 C1.2875 2.0625 -0.3625 2.0625 -2.0625 2.0625 C-2.0625 2.7225 -2.0625 3.3825 -2.0625 4.0625 C-0.7425 4.0625 0.5775 4.0625 1.9375 4.0625 C1.9375 4.7225 1.9375 5.3825 1.9375 6.0625 C0.6175 6.0625 -0.7025 6.0625 -2.0625 6.0625 C-2.0625 6.7225 -2.0625 7.3825 -2.0625 8.0625 C-0.4125 8.0625 1.2375 8.0625 2.9375 8.0625 C2.9375 8.7225 2.9375 9.3825 2.9375 10.0625 C0.6275 10.0625 -1.6825 10.0625 -4.0625 10.0625 C-4.08939216 8.58343108 -4.10884621 7.10422517 -4.125 5.625 C-4.13660156 4.80128906 -4.14820313 3.97757813 -4.16015625 3.12890625 C-4.00103255 -0.23815127 -3.43619093 0.07012635 0 0 Z " fill="#828E92" transform="translate(48.0625,195.9375)"/>
<path d="M0 0 C0.99 0 1.98 0 3 0 C3.66 2.97 4.32 5.94 5 9 C4.05125 8.814375 3.1025 8.62875 2.125 8.4375 C-0.89868793 7.71313368 -0.89868793 7.71313368 -3 9 C-2.5020163 5.26512223 -2.12508244 3.18762365 0 0 Z " fill="#889092" transform="translate(76,197)"/>
<path d="M0 0 C0.99 0 1.98 0 3 0 C6 5.625 6 5.625 6 9 C5.34 9 4.68 9 4 9 C4 8.34 4 7.68 4 7 C2.35 7 0.7 7 -1 7 C-1 7.66 -1 8.32 -1 9 C-1.66 9 -2.32 9 -3 9 C-2.01 6.03 -1.02 3.06 0 0 Z " fill="#8E979A" transform="translate(120,197)"/>
<path d="M0 0 C0.66 0 1.32 0 2 0 C2 3.3 2 6.6 2 10 C-2.5 7.75 -2.5 7.75 -4 4 C-4.33 5.65 -4.66 7.3 -5 9 C-5.33 9 -5.66 9 -6 9 C-6 6.36 -6 3.72 -6 1 C-5.01 1 -4.02 1 -3 1 C-2.34 1.99 -1.68 2.98 -1 4 C-0.67 2.68 -0.34 1.36 0 0 Z " fill="#929C9F" transform="translate(113,196)"/>
<path d="M0 0 C2.00720923 0.28674418 4.0085944 0.61866701 6 1 C6 1.99 6 2.98 6 4 C5.34 4 4.68 4 4 4 C4 3.34 4 2.68 4 2 C3.01 2 2.02 2 1 2 C1 2.99 1 3.98 1 5 C1.99 5 2.98 5 4 5 C4.66 6.65 5.32 8.3 6 10 C5.01 9.67 4.02 9.34 3 9 C3 8.01 3 7.02 3 6 C2.34 6 1.68 6 1 6 C1 7.32 1 8.64 1 10 C0.34 10 -0.32 10 -1 10 C-1.02689216 8.52093108 -1.04634621 7.04172517 -1.0625 5.5625 C-1.07410156 4.73878906 -1.08570313 3.91507813 -1.09765625 3.06640625 C-1 1 -1 1 0 0 Z " fill="#979EA1" transform="translate(54,196)"/>
<path d="M0 0 C4 1 4 1 5.25 3.0625 C5.4975 3.701875 5.745 4.34125 6 5 C6.33 3.35 6.66 1.7 7 0 C7.33 0 7.66 0 8 0 C8 2.97 8 5.94 8 9 C7.34 9 6.68 9 6 9 C4.375 7 4.375 7 3 5 C2.67 6.32 2.34 7.64 2 9 C1.34 9 0.68 9 0 9 C0 6.03 0 3.06 0 0 Z " fill="#ABB1B3" transform="translate(25,197)"/>
<path d="M0 0 C0 0.66 0 1.32 0 2 C-1.32 2 -2.64 2 -4 2 C-4 2.66 -4 3.32 -4 4 C-3.360625 4.103125 -2.72125 4.20625 -2.0625 4.3125 C-1.381875 4.539375 -0.70125 4.76625 0 5 C0.33 5.99 0.66 6.98 1 8 C0.67 8.66 0.34 9.32 0 10 C-1.65 10 -3.3 10 -5 10 C-5 9.34 -5 8.68 -5 8 C-4.01 8 -3.02 8 -2 8 C-2 7.34 -2 6.68 -2 6 C-3.32 5.67 -4.64 5.34 -6 5 C-6 3.68 -6 2.36 -6 1 C-4 0 -4 0 0 0 Z " fill="#8A9296" transform="translate(211,196)"/>
<path d="M0 0 C0.66 0.33 1.32 0.66 2 1 C-2.62 5.62 -7.24 10.24 -12 15 C-12 10.09687565 -8.29800369 7.38658643 -5 4 C-3.37458956 2.61667196 -1.72614587 1.25537882 0 0 Z " fill="#D6D9DA" transform="translate(66,19)"/>
<path d="M0 0 C1.32 0.33 2.64 0.66 4 1 C2.68 1.33 1.36 1.66 0 2 C0 2.66 0 3.32 0 4 C1.32 4.33 2.64 4.66 4 5 C4.5625 6.9375 4.5625 6.9375 5 9 C4 10 4 10 1.4375 10.0625 C0.633125 10.041875 -0.17125 10.02125 -1 10 C-1 9.34 -1 8.68 -1 8 C-0.01 7.67 0.98 7.34 2 7 C0.68 6.01 -0.64 5.02 -2 4 C-1.34 2.68 -0.68 1.36 0 0 Z " fill="#8F989C" transform="translate(176,196)"/>
<path d="M0 0 C2.625 0.375 2.625 0.375 5 1 C5 1.33 5 1.66 5 2 C3.35 2.33 1.7 2.66 0 3 C0 4.32 0 5.64 0 7 C1.65 7 3.3 7 5 7 C5 7.99 5 8.98 5 10 C2.125 10.1875 2.125 10.1875 -1 10 C-3 7 -3 7 -2.75 4.4375 C-2 2 -2 2 0 0 Z " fill="#929CA0" transform="translate(198,196)"/>
<path d="M0 0 C1.65 0 3.3 0 5 0 C5.38218767 1.65614657 5.71395102 3.32457024 6 5 C5 6 5 6 2.4375 6.0625 C1.2309375 6.0315625 1.2309375 6.0315625 0 6 C0 4.02 0 2.04 0 0 Z " fill="#090A0A" transform="translate(97,198)"/>
<path d="M0 0 C0 0.99 0 1.98 0 3 C-2.29943043 4.86242133 -4.55786137 6.53504905 -7 8.1875 C-7.66773438 8.65091797 -8.33546875 9.11433594 -9.0234375 9.59179688 C-10.67609867 10.73685497 -12.33727669 11.86960265 -14 13 C-14.66 12.34 -15.32 11.68 -16 11 C-10.72 7.37 -5.44 3.74 0 0 Z " fill="#495256" transform="translate(189,88)"/>
<path d="M0 0 C2.64 0 5.28 0 8 0 C8 0.66 8 1.32 8 2 C7.01 2 6.02 2 5 2 C5 4.64 5 7.28 5 10 C4.34 10 3.68 10 3 10 C3 7.36 3 4.72 3 2 C2.01 2 1.02 2 0 2 C0 1.34 0 0.68 0 0 Z " fill="#849095" transform="translate(81,196)"/>
<path d="M0 0 C2.64 0 5.28 0 8 0 C8 0.66 8 1.32 8 2 C7.01 2 6.02 2 5 2 C5 4.64 5 7.28 5 10 C4.34 10 3.68 10 3 10 C3 7.36 3 4.72 3 2 C2.01 2 1.02 2 0 2 C0 1.34 0 0.68 0 0 Z " fill="#859094" transform="translate(35,196)"/>
<path d="M0 0 C1.65 0.33 3.3 0.66 5 1 C4.67 2.65 4.34 4.3 4 6 C2.35 5.67 0.7 5.34 -1 5 C-0.67 3.35 -0.34 1.7 0 0 Z " fill="#040404" transform="translate(150,198)"/>
<path d="M0 0 C0.99 0 1.98 0 3 0 C3 0.66 3 1.32 3 2 C4.32 2 5.64 2 7 2 C7 3.98 7 5.96 7 8 C5.68 8.33 4.36 8.66 3 9 C3.66 8.67 4.32 8.34 5 8 C4.34 6.35 3.68 4.7 3 3 C2.01 3 1.02 3 0 3 C0 2.01 0 1.02 0 0 Z " fill="#1C1F20" transform="translate(55,198)"/>
<path d="M0 0 C0.66 0 1.32 0 2 0 C2 2.31 2 4.62 2 7 C3.32 7 4.64 7 6 7 C6 7.66 6 8.32 6 9 C4.02 9 2.04 9 0 9 C0 6.03 0 3.06 0 0 Z " fill="#969C9E" transform="translate(140,197)"/>
<path d="M0 0 C0.66 0 1.32 0 2 0 C2 2.31 2 4.62 2 7 C3.32 7 4.64 7 6 7 C6 7.66 6 8.32 6 9 C4.02 9 2.04 9 0 9 C0 6.03 0 3.06 0 0 Z " fill="#8D9598" transform="translate(128,197)"/>
<path d="M0 0 C1.32 0.33 2.64 0.66 4 1 C3.67 2.65 3.34 4.3 3 6 C1.02 6 -0.96 6 -3 6 C-2.34 5.34 -1.68 4.68 -1 4 C-0.01 4 0.98 4 2 4 C2 3.34 2 2.68 2 2 C1.34 2 0.68 2 0 2 C0 1.34 0 0.68 0 0 Z " fill="#858E91" transform="translate(164,200)"/>
<path d="M0 0 C2.31 0 4.62 0 7 0 C7 0.66 7 1.32 7 2 C6.01 2 5.02 2 4 2 C4 4.64 4 7.28 4 10 C3.67 10 3.34 10 3 10 C3 7.36 3 4.72 3 2 C2.01 2 1.02 2 0 2 C0 1.34 0 0.68 0 0 Z " fill="#A3B1B6" transform="translate(182,196)"/>
<path d="M0 0 C0.66 0.33 1.32 0.66 2 1 C0.50260417 2.23697917 -0.99479167 3.47395833 -2.4921875 4.7109375 C-3.71051161 5.75250992 -4.86660097 6.86660097 -6 8 C-6 7.34 -6 6.68 -6 6 C-6.66 6 -7.32 6 -8 6 C-7.67 5.01 -7.34 4.02 -7 3 C-6.01 3 -5.02 3 -4 3 C-1.82967524 1.56009377 -1.82967524 1.56009377 0 0 Z " fill="#1E2324" transform="translate(207,71)"/>
<path d="M0 0 C2.64 0.33 5.28 0.66 8 1 C8 1.66 8 2.32 8 3 C5.69 3 3.38 3 1 3 C0.67 2.01 0.34 1.02 0 0 Z " fill="#565E62" transform="translate(110,189)"/>
</svg>
